# Blender v2.83.4 OBJ File: ''
# www.blender.org
mtllib Gladius_Single.mtl
o Cylinder_Cylinder.001
v 0.000000 -3.240160 -1.000000
v 0.000000 3.240160 -1.000000
v 0.866025 -3.240160 -0.500000
v 0.866025 3.240160 -0.500000
v 0.866025 -3.240160 0.500000
v 0.866025 3.240160 0.500000
v -0.000000 -3.240160 1.000000
v -0.000000 3.240160 1.000000
v -0.866025 -3.240160 0.500000
v -0.866025 3.240160 0.500000
v -0.866025 -3.240160 -0.500000
v -0.866025 3.240160 -0.500000
v 0.000000 3.678598 -3.602228
v 1.169858 3.678598 -1.801114
v 1.169858 3.678598 1.801114
v -0.000000 3.678598 3.602228
v -1.169858 3.678598 1.801113
v -1.169858 3.678598 -1.801114
v 0.000000 5.047853 -4.000000
v 1.299038 5.047853 -2.000000
v 1.299038 5.047853 2.000000
v -0.000000 5.047853 4.000000
v -1.299038 5.047853 2.000000
v -1.299038 5.047853 -2.000000
v -0.000000 5.047853 -3.420000
v -0.000000 20.723480 -2.557984
v 0.259808 5.047853 -1.900000
v 0.259808 5.047853 1.900000
v -0.000000 5.047853 3.420000
v -0.259808 5.047853 1.900000
v -0.259808 5.047853 -1.900000
v 1.299038 -3.990160 -0.750000
v 0.000000 -3.990160 -1.500000
v 1.299038 -3.990160 0.750000
v -0.000000 -3.990160 1.500000
v -1.299038 -3.990160 0.750000
v -1.299038 -3.990160 -0.750000
v 1.299038 -4.740160 -0.750000
v 0.000000 -4.740160 -1.500000
v 1.299038 -4.740160 0.750000
v -0.000000 -4.740160 1.500000
v -1.299038 -4.740160 0.750000
v -1.299038 -4.740160 -0.750000
v 0.866025 -5.490160 -0.500000
v 0.000000 -5.490160 0.000000
v 0.000000 -5.490160 -1.000000
v 0.866025 -5.490160 0.500000
v -0.000000 -5.490160 1.000000
v -0.866025 -5.490160 0.500000
v -0.866025 -5.490160 -0.500000
v 1.299038 4.252554 -2.000000
v 1.299038 4.252554 2.000000
v -0.000000 4.252554 4.000000
v -1.299038 4.252554 2.000000
v 0.000000 4.252554 -4.000000
v -1.299038 4.252554 -2.000000
v -0.866025 -3.240160 0.000000
v -0.866025 3.240160 0.000000
v -1.169858 3.678598 0.000000
v -1.299038 5.047853 -0.000000
v -0.259808 5.047853 0.000000
v -1.299038 -3.990160 -0.000000
v -1.299038 -4.740160 -0.000000
v -0.866025 -5.490160 0.000000
v -1.299038 4.252554 -0.000000
v 0.866025 -3.240160 0.000000
v 0.866025 3.240160 0.000000
v 1.169858 3.678598 0.000000
v 1.299038 5.047853 0.000000
v 0.259808 5.047853 0.000000
v 1.299038 -3.990160 0.000000
v 1.299038 -4.740160 0.000000
v 0.866025 -5.490160 0.000000
v 1.299038 4.252554 0.000000
v -0.000000 12.642171 -2.903612
v -0.000000 34.994793 -2.722936
v 0.220579 12.642171 -1.613117
v 0.220579 12.642171 1.613118
v 0.220579 12.642171 0.000000
v -0.000000 12.642171 2.903612
v -0.220579 12.642171 1.613117
v -0.220579 12.642171 -1.613117
v -0.220579 12.642171 0.000000
v -0.000000 38.217785 -3.181384
v 0.174868 20.723480 -1.278990
v 0.174868 20.723480 1.278991
v 0.174848 20.723480 0.000000
v -0.000000 20.723480 2.557984
v -0.174868 20.723480 1.278990
v -0.174868 20.723480 -1.278990
v -0.174848 20.723480 0.000000
v -0.000000 41.411701 -2.171540
v 0.186085 34.994793 -1.361463
v 0.186085 34.994793 1.361463
v 0.186009 34.994793 0.000000
v -0.000000 34.994793 2.722936
v -0.186085 34.994793 1.361463
v -0.186085 34.994793 -1.361463
v -0.186009 34.994793 0.000000
v -0.000000 44.676785 -1.074689
v 0.217376 38.217785 -1.590683
v 0.217376 38.217785 1.590684
v 0.217249 38.217785 0.000000
v -0.000000 38.217785 3.181384
v -0.217376 38.217785 1.590683
v -0.217376 38.217785 -1.590683
v -0.217250 38.217785 0.000000
v -0.000000 30.062283 -2.462423
v 0.148356 41.411701 -1.085763
v 0.148356 41.411701 1.085763
v 0.148251 41.411701 0.000000
v -0.000000 41.411701 2.171540
v -0.148356 41.411701 1.085763
v -0.148356 41.411701 -1.085763
v -0.148251 41.411701 0.000000
v -0.000000 45.372501 0.000000
v 0.073399 44.676785 -0.537340
v 0.073399 44.676785 0.537340
v 0.073328 44.676785 0.000000
v -0.000000 44.676785 1.074689
v -0.073399 44.676785 0.537340
v -0.073399 44.676785 -0.537340
v -0.073328 44.676785 0.000000
v 0.168263 30.062283 0.000000
v 0.168308 30.062283 -1.231208
v 0.168308 30.062283 1.231209
v -0.000000 30.062283 2.462423
v -0.168308 30.062283 1.231208
v -0.168308 30.062283 -1.231208
v -0.168263 30.062283 0.000000
vt 0.370384 0.184398
vt 0.296809 0.134425
vt 0.370476 0.141598
vt 0.470274 0.660246
vt 0.490274 0.732689
vt 0.428220 0.699851
vt 0.189890 0.216914
vt 0.259037 0.647635
vt 0.192509 0.648039
vt 0.398692 0.144373
vt 0.398427 0.186290
vt 0.330887 0.663080
vt 0.312205 0.735048
vt 0.205249 0.729849
vt 0.289683 0.216308
vt 0.325565 0.647231
vt 0.292301 0.647433
vt 0.426569 0.184842
vt 0.493358 0.138303
vt 0.480100 0.184698
vt 0.470288 0.661283
vt 0.490288 0.733725
vt 0.428234 0.700888
vt 0.322947 0.216106
vt 0.392094 0.646827
vt 0.370390 0.184616
vt 0.398698 0.144591
vt 0.398433 0.186508
vt 0.330874 0.662044
vt 0.312192 0.734012
vt 0.205236 0.728812
vt 0.389475 0.215702
vt 0.458622 0.646423
vt 0.311340 0.189565
vt 0.370481 0.141816
vt 0.400972 0.728815
vt 0.400712 0.700532
vt 0.489268 0.215095
vt 0.525151 0.646019
vt 0.491887 0.646221
vt 0.426575 0.185060
vt 0.493364 0.138521
vt 0.480106 0.184916
vt 0.400959 0.727779
vt 0.400699 0.699495
vt 0.522532 0.214893
vt 0.591679 0.645614
vt 0.619004 0.760582
vt 0.497555 0.798271
vt 0.497369 0.761792
vt 0.401195 0.759853
vt 0.401187 0.801814
vt 0.305534 0.762872
vt 0.187463 0.806925
vt 0.186730 0.763027
vt 0.618991 0.759545
vt 0.497541 0.797234
vt 0.497356 0.760755
vt 0.401174 0.800777
vt 0.401182 0.758816
vt 0.305521 0.761835
vt 0.187449 0.805888
vt 0.186717 0.761990
vt 0.307453 0.797608
vt 0.215466 0.821597
vt 0.589653 0.822741
vt 0.506436 0.849219
vt 0.401360 0.856102
vt 0.307466 0.798645
vt 0.215479 0.822634
vt 0.589640 0.821704
vt 0.506422 0.848182
vt 0.401347 0.855065
vt 0.717805 0.018702
vt 0.692352 0.199450
vt 0.681082 0.018529
vt 0.807260 0.019733
vt 0.830498 0.200780
vt 0.799319 0.200545
vt 0.762013 0.019456
vt 0.760906 0.200311
vt 0.722492 0.200075
vt 0.716766 0.019180
vt 0.691313 0.199928
vt 0.680044 0.019007
vt 0.808298 0.019256
vt 0.831536 0.200302
vt 0.800358 0.200067
vt 0.398612 0.115596
vt 0.296815 0.134643
vt 0.372121 0.114934
vt 0.427996 0.141637
vt 0.487813 0.098669
vt 0.398606 0.115378
vt 0.372115 0.114716
vt 0.428002 0.141855
vt 0.487819 0.098887
vt 0.307615 0.091884
vt 0.379868 0.084132
vt 0.424591 0.115255
vt 0.456963 0.058218
vt 0.379862 0.083914
vt 0.398698 0.083506
vt 0.307609 0.091667
vt 0.424597 0.115473
vt 0.456969 0.058436
vt 0.398704 0.083724
vt 0.399681 0.042137
vt 0.417146 0.084693
vt 0.343857 0.056041
vt 0.399687 0.042355
vt 0.417152 0.084911
vt 0.343863 0.056259
vt 0.599442 0.725789
vt 0.599455 0.726825
vt 0.298349 0.848134
vt 0.373257 0.700405
vt 0.456004 0.215297
vt 0.298363 0.849171
vt 0.373270 0.701442
vt 0.256418 0.216510
vt 0.761944 0.199833
vt 0.730303 0.392126
vt 0.723531 0.199597
vt 0.763051 0.018979
vt 0.699556 0.391957
vt 0.820937 0.393184
vt 0.790191 0.392977
vt 0.729265 0.392604
vt 0.759728 0.392790
vt 0.698518 0.392435
vt 0.821976 0.392706
vt 0.791229 0.392499
vt 0.760766 0.392312
vt 0.700484 0.614393
vt 0.726270 0.732051
vt 0.693538 0.731828
vt 0.817287 0.615592
vt 0.790063 0.732926
vt 0.787694 0.615420
vt 0.729039 0.615061
vt 0.757647 0.732722
vt 0.725231 0.732529
vt 0.758366 0.615240
vt 0.699446 0.614871
vt 0.692500 0.732306
vt 0.818325 0.615114
vt 0.791101 0.732448
vt 0.788732 0.614942
vt 0.758686 0.732244
vt 0.759405 0.614762
vt 0.730077 0.614583
vt 0.822795 0.733103
vt 0.794983 0.809632
vt 0.757178 0.809393
vt 0.719373 0.809169
vt 0.681190 0.808996
vt 0.823834 0.732625
vt 0.796021 0.809154
vt 0.758216 0.808915
vt 0.720411 0.808692
vt 0.682228 0.808518
vt 0.809661 0.885314
vt 0.783594 0.885030
vt 0.757751 0.884869
vt 0.731909 0.884714
vt 0.705841 0.884678
vt 0.808622 0.885791
vt 0.782556 0.885508
vt 0.730870 0.885192
vt 0.756713 0.885347
vt 0.704802 0.885156
vt 0.731683 0.962378
vt 0.781830 0.963169
vt 0.768958 0.962892
vt 0.743520 0.962736
vt 0.756239 0.962824
vt 0.730645 0.962856
vt 0.782869 0.962691
vt 0.769996 0.962414
vt 0.757277 0.962346
vt 0.744558 0.962258
vt 0.756137 0.979461
vt 0.757176 0.978983
vt 0.311334 0.189348
vt 0.589060 0.214489
vt 0.617741 0.807133
vt 0.617728 0.806097
vt 0.843982 0.020010
vt 0.845020 0.019532
vt 0.833165 0.809926
vt 0.834204 0.809448
vn 0.4330 0.5000 0.7500
vn -0.1622 -0.9459 0.2809
vn 0.5000 0.0000 -0.8660
vn 0.8660 0.5000 0.0000
vn 0.2478 -0.9553 0.1610
vn 1.0000 -0.0000 0.0000
vn 0.4330 0.5000 -0.7500
vn 0.1622 -0.9459 -0.2809
vn 0.5000 0.0000 0.8660
vn -0.8660 0.5000 0.0000
vn -0.2478 -0.9553 -0.1610
vn -0.5000 0.0000 0.8660
vn -0.4330 0.5000 -0.7500
vn 0.8219 -0.5696 0.0000
vn -1.0000 0.0000 0.0000
vn -0.4330 0.5000 0.7500
vn -0.8219 -0.5696 0.0000
vn -0.5000 0.0000 -0.8660
vn 0.8386 0.0000 -0.5447
vn 0.8386 0.0000 0.5447
vn -0.8386 0.0000 0.5447
vn -0.8386 0.0000 -0.5447
vn 0.0000 1.0000 -0.0000
vn -0.9856 0.0115 -0.1685
vn 0.9856 0.0115 -0.1685
vn 1.0000 0.0052 0.0000
vn 0.9856 0.0115 0.1685
vn -0.9856 0.0115 0.1685
vn -0.4330 -0.5000 -0.7500
vn 0.4330 -0.5000 -0.7500
vn 0.8660 -0.5000 0.0000
vn 0.4330 -0.5000 0.7500
vn -0.4330 -0.5000 0.7500
vn -0.8660 -0.5000 0.0000
vn 0.0000 -1.0000 0.0000
vn -0.7846 -0.3532 -0.5096
vn -0.9756 -0.2196 0.0000
vn -0.7846 -0.3532 0.5096
vn 0.7846 -0.3532 0.5096
vn 0.9756 -0.2196 0.0000
vn 0.7846 -0.3532 -0.5096
vn -1.0000 0.0057 0.0000
vn -1.0000 0.0052 0.0000
vn -0.9857 0.0072 -0.1685
vn 0.9907 0.0112 -0.1355
vn 1.0000 0.0057 0.0000
vn 0.9857 0.0072 0.1685
vn -0.9907 0.0112 0.1355
vn -0.9908 -0.0072 -0.1354
vn 0.9908 -0.0071 -0.1354
vn 1.0000 -0.0036 -0.0001
vn 1.0000 -0.0036 0.0000
vn 0.9908 -0.0072 0.1354
vn -0.9908 -0.0071 0.1354
vn -1.0000 -0.0036 -0.0000
vn -1.0000 -0.0036 0.0001
vn 0.9906 -0.0192 -0.1354
vn 1.0000 -0.0097 -0.0001
vn 1.0000 -0.0097 0.0001
vn 0.9906 -0.0193 0.1354
vn -0.9906 -0.0192 0.1354
vn -1.0000 -0.0097 -0.0001
vn -1.0000 -0.0097 0.0001
vn -0.9906 -0.0193 -0.1354
vn -0.9899 0.0428 0.1353
vn -0.9998 0.0216 -0.0001
vn -0.9998 0.0216 0.0001
vn -0.9899 0.0428 -0.1353
vn 0.9899 0.0428 -0.1353
vn 0.9998 0.0216 -0.0001
vn 0.9998 0.0216 0.0001
vn 0.9899 0.0428 0.1353
vn -0.9898 0.0454 -0.1352
vn 0.9898 0.0454 -0.1352
vn 0.9997 0.0229 -0.0001
vn 0.9997 0.0229 0.0001
vn 0.9898 0.0454 0.1352
vn -0.9898 0.0454 0.1352
vn -0.9997 0.0229 -0.0001
vn -0.9997 0.0229 0.0001
vn 0.9698 0.2046 -0.1325
vn 0.9945 0.1048 -0.0001
vn 0.9698 0.2046 0.1325
vn -0.9698 0.2046 0.1325
vn -0.9945 0.1048 0.0001
vn -0.9698 0.2046 -0.1325
vn -0.9945 0.1048 -0.0001
vn 0.9945 0.1048 0.0001
vn -1.0000 0.0007 0.0000
vn -0.9908 0.0014 0.1354
vn 0.9908 0.0014 0.1355
vn 1.0000 0.0007 0.0000
vn 0.9908 0.0014 -0.1354
vn -0.9908 0.0014 -0.1355
vn -0.2478 -0.9553 0.1610
vn 0.1622 -0.9459 0.2809
vn 0.2478 -0.9553 -0.1610
vn -0.1622 -0.9459 -0.2809
vn -0.9907 0.0112 -0.1355
vn 0.9857 0.0072 -0.1685
vn 0.9907 0.0112 0.1355
vn -0.9857 0.0072 0.1685
vn -0.9908 -0.0071 -0.1354
vn 0.9908 -0.0072 -0.1354
vn 1.0000 -0.0036 0.0001
vn 0.9908 -0.0071 0.1354
vn -0.9908 -0.0072 0.1354
vn -1.0000 -0.0036 -0.0001
vn 0.9906 -0.0193 -0.1354
vn 0.9906 -0.0192 0.1354
vn -0.9906 -0.0193 0.1354
vn -0.9906 -0.0192 -0.1354
vn -0.9908 0.0014 0.1355
vn 0.9908 0.0014 0.1354
vn 0.9908 0.0014 -0.1355
vn -0.9908 0.0014 -0.1354
usemtl None
s off
f 5/1/1 35/2/1 34/3/1
f 8/4/2 17/5/2 10/6/2
f 2/7/3 3/8/3 1/9/3
f 5/1/4 71/10/4 66/11/4
f 8/12/5 15/13/5 16/14/5
f 67/15/6 5/16/6 66/17/6
f 3/18/7 33/19/7 1/20/7
f 2/21/8 14/22/8 4/23/8
f 6/24/9 7/25/9 5/16/9
f 11/26/10 62/27/10 57/28/10
f 2/29/11 18/30/11 13/31/11
f 8/32/12 9/33/12 7/25/12
f 1/34/13 37/35/13 11/26/13
f 4/23/14 68/36/14 67/37/14
f 58/38/15 11/39/15 57/40/15
f 9/41/16 35/42/16 7/43/16
f 10/6/17 59/44/17 58/45/17
f 12/46/18 1/47/18 11/39/18
f 55/48/19 20/49/19 51/50/19
f 74/51/6 20/49/6 69/52/6
f 52/53/20 22/54/20 53/55/20
f 53/56/21 23/57/21 54/58/21
f 54/58/15 60/59/15 65/60/15
f 56/61/22 19/62/22 55/63/22
f 24/64/23 25/65/23 19/62/23
f 20/49/23 25/66/23 27/67/23
f 69/52/23 27/67/23 70/68/23
f 21/69/23 29/70/23 22/54/23
f 23/57/23 29/71/23 30/72/23
f 60/59/23 30/72/23 61/73/23
f 31/74/24 75/75/24 25/76/24
f 27/77/25 75/78/25 77/79/25
f 70/80/26 77/79/26 79/81/26
f 70/80/26 78/82/26 28/83/26
f 28/83/27 80/84/27 29/85/27
f 30/86/28 80/87/28 81/88/28
f 37/35/15 63/89/15 62/27/15
f 33/90/18 43/91/18 37/35/18
f 32/92/3 39/93/3 33/19/3
f 34/3/6 72/94/6 71/10/6
f 35/2/9 40/95/9 34/3/9
f 36/96/12 41/97/12 35/42/12
f 39/98/29 50/99/29 43/91/29
f 38/100/30 46/101/30 39/93/30
f 72/94/31 47/102/31 73/103/31
f 41/104/32 47/102/32 40/95/32
f 42/105/33 48/106/33 41/97/33
f 63/89/34 50/99/34 64/107/34
f 45/108/35 46/101/35 44/109/35
f 45/108/35 73/103/35 47/102/35
f 45/108/35 47/102/35 48/110/35
f 45/111/35 48/106/35 49/112/35
f 45/111/35 64/107/35 50/99/35
f 45/111/35 50/99/35 46/113/35
f 13/31/36 56/61/36 55/63/36
f 17/5/37 65/60/37 59/44/37
f 16/114/38 54/58/38 17/5/38
f 16/14/39 52/53/39 53/55/39
f 14/22/40 74/51/40 68/36/40
f 13/115/41 51/50/41 14/22/41
f 18/30/37 65/60/37 56/61/37
f 63/89/34 49/112/34 42/105/34
f 62/27/15 42/105/15 36/96/15
f 60/59/23 31/116/23 24/64/23
f 65/60/15 24/64/15 56/61/15
f 12/117/17 59/44/17 18/30/17
f 10/118/15 57/40/15 9/33/15
f 9/41/10 62/27/10 36/96/10
f 15/13/40 74/51/40 52/53/40
f 72/94/31 44/109/31 38/100/31
f 71/10/6 38/100/6 32/92/6
f 69/52/23 28/119/23 21/69/23
f 52/53/6 69/52/6 21/69/6
f 6/120/14 68/36/14 15/13/14
f 4/121/6 66/17/6 3/8/6
f 3/18/4 71/10/4 32/92/4
f 83/122/42 90/123/42 82/124/42
f 61/125/43 81/88/43 83/122/43
f 61/125/43 82/124/43 31/74/43
f 64/107/35 45/111/35 49/112/35
f 73/103/35 45/108/35 44/109/35
f 82/124/44 26/126/44 75/75/44
f 77/79/45 26/127/45 85/128/45
f 79/81/46 86/129/46 78/82/46
f 79/81/46 85/128/46 87/130/46
f 78/82/47 88/131/47 80/84/47
f 81/88/48 88/132/48 89/133/48
f 83/122/42 89/133/42 91/134/42
f 108/135/49 98/136/49 76/137/49
f 108/138/50 93/139/50 125/140/50
f 126/141/51 95/142/51 94/143/51
f 125/140/52 95/142/52 124/144/52
f 127/145/53 94/143/53 96/146/53
f 127/147/54 97/148/54 128/149/54
f 128/149/55 99/150/55 130/151/55
f 129/152/56 99/150/56 98/136/56
f 76/153/57 101/154/57 93/139/57
f 94/143/58 103/155/58 102/156/58
f 93/139/59 103/155/59 95/142/59
f 96/146/60 102/156/60 104/157/60
f 96/158/61 105/159/61 97/148/61
f 97/148/62 107/160/62 99/150/62
f 98/136/63 107/160/63 106/161/63
f 76/137/64 106/161/64 84/162/64
f 105/159/65 112/163/65 113/164/65
f 107/160/66 113/164/66 115/165/66
f 107/160/67 114/166/67 106/161/67
f 106/161/68 92/167/68 84/162/68
f 101/154/69 92/168/69 109/169/69
f 103/155/70 110/170/70 102/156/70
f 103/155/71 109/169/71 111/171/71
f 102/156/72 112/172/72 104/157/72
f 114/166/73 100/173/73 92/167/73
f 109/169/74 100/174/74 117/175/74
f 111/171/75 118/176/75 110/170/75
f 111/171/76 117/175/76 119/177/76
f 110/170/77 120/178/77 112/172/77
f 113/164/78 120/179/78 121/180/78
f 115/165/79 121/180/79 123/181/79
f 115/165/80 122/182/80 114/166/80
f 116/183/81 117/175/81 100/174/81
f 116/183/82 118/176/82 119/177/82
f 116/183/83 120/178/83 118/176/83
f 116/184/84 121/180/84 120/179/84
f 116/184/85 122/182/85 123/181/85
f 116/184/86 100/173/86 122/182/86
f 123/181/87 121/180/87 116/184/87
f 119/177/88 117/175/88 116/183/88
f 91/134/89 129/152/89 90/123/89
f 91/134/89 128/149/89 130/151/89
f 89/133/90 127/147/90 128/149/90
f 86/129/91 127/145/91 88/131/91
f 87/130/92 125/140/92 124/144/92
f 87/130/92 126/141/92 86/129/92
f 85/128/93 108/138/93 125/140/93
f 90/123/94 108/135/94 26/126/94
f 5/1/1 7/185/1 35/2/1
f 8/4/95 16/114/95 17/5/95
f 2/7/3 4/121/3 3/8/3
f 5/1/4 34/3/4 71/10/4
f 8/12/96 6/120/96 15/13/96
f 67/15/6 6/24/6 5/16/6
f 3/18/7 32/92/7 33/19/7
f 2/21/97 13/115/97 14/22/97
f 6/24/9 8/32/9 7/25/9
f 11/26/10 37/35/10 62/27/10
f 2/29/98 12/117/98 18/30/98
f 8/32/12 10/118/12 9/33/12
f 1/34/13 33/90/13 37/35/13
f 4/23/14 14/22/14 68/36/14
f 58/38/15 12/46/15 11/39/15
f 9/41/16 36/96/16 35/42/16
f 10/6/17 17/5/17 59/44/17
f 12/46/18 2/186/18 1/47/18
f 55/48/19 19/187/19 20/49/19
f 74/51/6 51/50/6 20/49/6
f 52/53/20 21/69/20 22/54/20
f 53/56/21 22/188/21 23/57/21
f 54/58/15 23/57/15 60/59/15
f 56/61/22 24/64/22 19/62/22
f 24/64/23 31/116/23 25/65/23
f 20/49/23 19/187/23 25/66/23
f 69/52/23 20/49/23 27/67/23
f 21/69/23 28/119/23 29/70/23
f 23/57/23 22/188/23 29/71/23
f 60/59/23 23/57/23 30/72/23
f 31/74/24 82/124/24 75/75/24
f 27/77/25 25/189/25 75/78/25
f 70/80/26 27/77/26 77/79/26
f 70/80/26 79/81/26 78/82/26
f 28/83/27 78/82/27 80/84/27
f 30/86/28 29/190/28 80/87/28
f 37/35/15 43/91/15 63/89/15
f 33/90/18 39/98/18 43/91/18
f 32/92/3 38/100/3 39/93/3
f 34/3/6 40/95/6 72/94/6
f 35/2/9 41/104/9 40/95/9
f 36/96/12 42/105/12 41/97/12
f 39/98/29 46/113/29 50/99/29
f 38/100/30 44/109/30 46/101/30
f 72/94/31 40/95/31 47/102/31
f 41/104/32 48/110/32 47/102/32
f 42/105/33 49/112/33 48/106/33
f 63/89/34 43/91/34 50/99/34
f 13/31/36 18/30/36 56/61/36
f 17/5/37 54/58/37 65/60/37
f 16/114/38 53/56/38 54/58/38
f 16/14/39 15/13/39 52/53/39
f 14/22/40 51/50/40 74/51/40
f 13/115/41 55/48/41 51/50/41
f 18/30/37 59/44/37 65/60/37
f 63/89/34 64/107/34 49/112/34
f 62/27/15 63/89/15 42/105/15
f 60/59/23 61/73/23 31/116/23
f 65/60/15 60/59/15 24/64/15
f 12/117/17 58/45/17 59/44/17
f 10/118/15 58/38/15 57/40/15
f 9/41/10 57/28/10 62/27/10
f 15/13/40 68/36/40 74/51/40
f 72/94/31 73/103/31 44/109/31
f 71/10/6 72/94/6 38/100/6
f 69/52/23 70/68/23 28/119/23
f 52/53/6 74/51/6 69/52/6
f 6/120/14 67/37/14 68/36/14
f 4/121/6 67/15/6 66/17/6
f 3/18/4 66/11/4 71/10/4
f 83/122/42 91/134/42 90/123/42
f 61/125/43 30/86/43 81/88/43
f 61/125/43 83/122/43 82/124/43
f 82/124/99 90/123/99 26/126/99
f 77/79/100 75/78/100 26/127/100
f 79/81/46 87/130/46 86/129/46
f 79/81/46 77/79/46 85/128/46
f 78/82/101 86/129/101 88/131/101
f 81/88/102 80/87/102 88/132/102
f 83/122/42 81/88/42 89/133/42
f 108/135/103 129/152/103 98/136/103
f 108/138/104 76/153/104 93/139/104
f 126/141/52 124/144/52 95/142/52
f 125/140/105 93/139/105 95/142/105
f 127/145/106 126/141/106 94/143/106
f 127/147/107 96/158/107 97/148/107
f 128/149/108 97/148/108 99/150/108
f 129/152/55 130/151/55 99/150/55
f 76/153/109 84/191/109 101/154/109
f 94/143/58 95/142/58 103/155/58
f 93/139/59 101/154/59 103/155/59
f 96/146/110 94/143/110 102/156/110
f 96/158/111 104/192/111 105/159/111
f 97/148/62 105/159/62 107/160/62
f 98/136/63 99/150/63 107/160/63
f 76/137/112 98/136/112 106/161/112
f 105/159/65 104/192/65 112/163/65
f 107/160/66 105/159/66 113/164/66
f 107/160/67 115/165/67 114/166/67
f 106/161/68 114/166/68 92/167/68
f 101/154/69 84/191/69 92/168/69
f 103/155/70 111/171/70 110/170/70
f 103/155/71 101/154/71 109/169/71
f 102/156/72 110/170/72 112/172/72
f 114/166/73 122/182/73 100/173/73
f 109/169/74 92/168/74 100/174/74
f 111/171/75 119/177/75 118/176/75
f 111/171/76 109/169/76 117/175/76
f 110/170/77 118/176/77 120/178/77
f 113/164/78 112/163/78 120/179/78
f 115/165/79 113/164/79 121/180/79
f 115/165/80 123/181/80 122/182/80
f 91/134/89 130/151/89 129/152/89
f 91/134/89 89/133/89 128/149/89
f 89/133/113 88/132/113 127/147/113
f 86/129/114 126/141/114 127/145/114
f 87/130/92 85/128/92 125/140/92
f 87/130/92 124/144/92 126/141/92
f 85/128/115 26/127/115 108/138/115
f 90/123/116 129/152/116 108/135/116
