# Blender v2.93.5 OBJ File: ''
# www.blender.org
o Torus
v 1.250000 0.000000 0.000000
v 1.000000 0.050000 0.000000
v 0.750000 0.000000 0.000000
v 1.154849 0.000000 -0.478354
v 0.923880 0.050000 -0.382683
v 0.692910 0.000000 -0.287013
v 0.883883 0.000000 -0.883884
v 0.707107 0.050000 -0.707107
v 0.530330 0.000000 -0.530330
v 0.478355 0.000000 -1.154849
v 0.382684 0.050000 -0.923879
v 0.287013 0.000000 -0.692910
v 0.000000 0.000000 -1.250000
v 0.000000 0.050000 -1.000000
v 0.000000 0.000000 -0.750000
v -0.478354 0.000000 -1.154849
v -0.382684 0.050000 -0.923880
v -0.287013 0.000000 -0.692910
v -0.883884 0.000000 -0.883883
v -0.707107 0.050000 -0.707107
v -0.530330 0.000000 -0.530330
v -1.154849 0.000000 -0.478354
v -0.923880 0.050000 -0.382683
v -0.692910 0.000000 -0.287013
v -1.250000 0.000000 -0.000000
v -1.000000 0.050000 -0.000000
v -0.750000 0.000000 -0.000000
v -1.154850 0.000000 0.478354
v -0.923880 0.050000 0.382683
v -0.692910 0.000000 0.287012
v -0.883884 0.000000 0.883883
v -0.707107 0.050000 0.707107
v -0.530330 0.000000 0.530330
v -0.478354 0.000000 1.154849
v -0.382684 0.050000 0.923880
v -0.287013 0.000000 0.692910
v 0.000000 0.000000 1.250000
v 0.000000 0.050000 1.000000
v 0.000000 0.000000 0.750000
v 0.478355 0.000000 1.154849
v 0.382684 0.050000 0.923879
v 0.287013 0.000000 0.692910
v 0.883883 0.000000 0.883884
v 0.707106 0.050000 0.707107
v 0.530330 0.000000 0.530330
v 1.154849 0.000000 0.478355
v 0.923879 0.050000 0.382684
v 0.692910 0.000000 0.287013
vt 7.866899 0.006676
vt 8.849084 0.497768
vt 7.866899 0.497768
vt 7.866899 0.988860
vt 9.831268 0.006676
vt 8.849084 0.006676
vt 9.831268 0.988860
vt 8.849084 0.988860
vt 10.813452 0.006676
vt 9.831268 0.497768
vt 10.813452 0.497768
vt 11.795637 0.006676
vt 11.795637 0.497768
vt 10.813452 0.988860
vt 12.777821 0.006676
vt 12.777821 0.988860
vt 11.795637 0.988860
vt 13.760005 0.006676
vt 12.777821 0.497768
vt 13.760005 0.497768
vt 14.742189 0.497768
vt 13.760005 0.988860
vt 15.724374 0.006676
vt 14.742189 0.006676
vt 15.724374 0.497768
vt 14.742189 0.988860
vt 0.009425 0.006676
vt 0.991609 0.497768
vt 0.009425 0.497768
vt 0.009425 0.988860
vt 1.973794 0.006676
vt 0.991609 0.006676
vt 1.973794 0.497768
vt 0.991609 0.988860
vt 2.955977 0.497768
vt 1.973794 0.988860
vt 3.938162 0.006676
vt 2.955977 0.006676
vt 3.938162 0.497768
vt 2.955977 0.988860
vt 4.920346 0.006676
vt 4.920346 0.497768
vt 3.938162 0.988860
vt 5.902530 0.006676
vt 5.902530 0.497768
vt 4.920346 0.988860
vt 6.884715 0.497768
vt 5.902530 0.988860
vt 6.884715 0.006676
vt 6.884715 0.988860
vt 15.724374 0.988860
vn 0.1960 0.9798 -0.0390
vn -0.1960 0.9798 0.0390
vn 0.1661 0.9798 -0.1110
vn -0.1661 0.9798 0.1110
vn 0.1110 0.9798 -0.1661
vn -0.1110 0.9798 0.1661
vn 0.0390 0.9798 -0.1960
vn -0.0390 0.9798 0.1960
vn -0.0390 0.9798 -0.1960
vn 0.0390 0.9798 0.1960
vn -0.1110 0.9798 -0.1661
vn 0.1110 0.9798 0.1661
vn -0.1661 0.9798 -0.1110
vn 0.1661 0.9798 0.1110
vn -0.1960 0.9798 -0.0390
vn 0.1960 0.9798 0.0390
s off
f 1/1/1 5/2/1 2/3/1
f 5/2/2 3/4/2 2/3/2
f 7/5/3 5/2/3 4/6/3
f 5/2/4 9/7/4 6/8/4
f 10/9/5 8/10/5 7/5/5
f 11/11/6 9/7/6 8/10/6
f 13/12/7 11/11/7 10/9/7
f 14/13/8 12/14/8 11/11/8
f 16/15/9 14/13/9 13/12/9
f 14/13/10 18/16/10 15/17/10
f 19/18/11 17/19/11 16/15/11
f 20/20/12 18/16/12 17/19/12
f 19/18/13 23/21/13 20/20/13
f 23/21/14 21/22/14 20/20/14
f 25/23/15 23/21/15 22/24/15
f 26/25/16 24/26/16 23/21/16
f 25/27/2 29/28/2 26/29/2
f 29/28/1 27/30/1 26/29/1
f 31/31/4 29/28/4 28/32/4
f 32/33/3 30/34/3 29/28/3
f 31/31/6 35/35/6 32/33/6
f 35/35/5 33/36/5 32/33/5
f 37/37/8 35/35/8 34/38/8
f 38/39/7 36/40/7 35/35/7
f 40/41/10 38/39/10 37/37/10
f 41/42/9 39/43/9 38/39/9
f 43/44/12 41/42/12 40/41/12
f 44/45/11 42/46/11 41/42/11
f 43/44/14 47/47/14 44/45/14
f 47/47/13 45/48/13 44/45/13
f 1/1/16 47/47/16 46/49/16
f 47/47/15 3/4/15 48/50/15
f 1/1/1 4/6/1 5/2/1
f 5/2/2 6/8/2 3/4/2
f 7/5/3 8/10/3 5/2/3
f 5/2/4 8/10/4 9/7/4
f 10/9/5 11/11/5 8/10/5
f 11/11/6 12/14/6 9/7/6
f 13/12/7 14/13/7 11/11/7
f 14/13/8 15/17/8 12/14/8
f 16/15/9 17/19/9 14/13/9
f 14/13/10 17/19/10 18/16/10
f 19/18/11 20/20/11 17/19/11
f 20/20/12 21/22/12 18/16/12
f 19/18/13 22/24/13 23/21/13
f 23/21/14 24/26/14 21/22/14
f 25/23/15 26/25/15 23/21/15
f 26/25/16 27/51/16 24/26/16
f 25/27/2 28/32/2 29/28/2
f 29/28/1 30/34/1 27/30/1
f 31/31/4 32/33/4 29/28/4
f 32/33/3 33/36/3 30/34/3
f 31/31/6 34/38/6 35/35/6
f 35/35/5 36/40/5 33/36/5
f 37/37/8 38/39/8 35/35/8
f 38/39/7 39/43/7 36/40/7
f 40/41/10 41/42/10 38/39/10
f 41/42/9 42/46/9 39/43/9
f 43/44/12 44/45/12 41/42/12
f 44/45/11 45/48/11 42/46/11
f 43/44/14 46/49/14 47/47/14
f 47/47/13 48/50/13 45/48/13
f 1/1/16 2/3/16 47/47/16
f 47/47/15 2/3/15 3/4/15
