# Blender v2.92.0 OBJ File: 'TimberCrate--Complete--Default.blend'
# www.blender.org
o Cube
v 0.800000 2.000000 -0.800000
v 0.800000 0.482843 -1.000000
v 0.517157 2.000000 0.800000
v 1.000000 0.482843 0.800000
v -0.800000 2.000000 -0.517157
v -0.800000 0.200000 -1.000000
v -0.800000 2.000000 0.800000
v -0.800000 0.482843 1.000000
v 0.800000 2.000000 0.517157
v -0.800000 1.800000 1.000000
v -0.517157 2.000000 -0.800000
v 0.800000 1.800000 -1.000000
v 1.000000 1.800000 0.800000
v -0.517157 1.800000 -1.000000
v 1.000000 1.800000 -0.517157
v 0.517157 0.200000 -1.000000
v -0.800000 1.517157 -1.000000
v 1.000000 0.200000 -0.800000
v -1.000000 0.482843 -0.800000
v -1.000000 1.800000 -0.800000
v 0.517157 1.800000 1.000000
v 1.000000 0.200000 0.517157
v 1.000000 1.517157 -0.800000
v 1.000000 2.000000 -1.000000
v 0.517157 0.000000 -0.800000
v 0.800000 0.200000 1.000000
v -0.517157 0.200000 1.000000
v -1.000000 1.800000 0.517157
v 0.800000 1.517157 1.000000
v 1.000000 2.000000 1.000000
v 0.800000 0.000000 0.800000
v -1.000000 0.200000 0.800000
v -1.000000 2.000000 -1.000000
v -1.000000 0.200000 -0.517157
v -1.000000 1.517157 0.800000
v -0.800000 0.000000 -0.800000
v -0.800000 0.000000 0.517157
v -1.000000 2.000000 1.000000
v -1.000000 0.000000 -1.000000
v -0.517157 0.000000 0.800000
v 0.800000 0.000000 -0.517157
v -1.000000 0.000000 1.000000
v 1.000000 0.000000 1.000000
v 1.000000 0.000000 -1.000000
v -0.491299 1.902500 -0.760000
v 0.760000 1.902500 0.491299
v 0.760000 1.902500 -0.760000
v 0.760000 1.491299 0.902500
v -0.491299 0.240000 0.902500
v 0.760000 0.240000 0.902500
v -0.902500 1.491299 0.760000
v -0.902500 0.240000 -0.491299
v -0.902500 0.240000 0.760000
v 0.491299 0.097500 -0.760000
v -0.760000 0.097500 0.491299
v -0.760000 0.097500 -0.760000
v 0.902500 1.491299 -0.760000
v 0.902500 0.240000 0.491299
v 0.902500 0.240000 -0.760000
v -0.760000 1.491299 -0.902500
v 0.491299 0.240000 -0.902500
v -0.760000 0.240000 -0.902500
v -0.760000 1.902500 -0.491299
v -0.760000 1.902500 0.760000
v 0.491299 1.902500 0.760000
v 0.491299 1.760000 0.902500
v -0.760000 1.760000 0.902500
v -0.760000 0.508701 0.902500
v -0.902500 1.760000 0.491299
v -0.902500 1.760000 -0.760000
v -0.902500 0.508701 -0.760000
v 0.760000 0.097500 -0.491299
v 0.760000 0.097500 0.760000
v -0.491299 0.097500 0.760000
v 0.902500 1.760000 -0.491299
v 0.902500 1.760000 0.760000
v 0.902500 0.508701 0.760000
v -0.491299 1.760000 -0.902500
v 0.760000 1.760000 -0.902500
v 0.760000 0.508701 -0.902500
vt 0.671942 0.292197
vt 0.626443 0.906783
vt 0.626443 0.096603
vt 0.576888 0.295825
vt 0.622388 0.910411
vt 0.576888 0.829393
vt 0.683291 0.227614
vt 0.715396 0.898056
vt 0.683291 0.760047
vt 0.576888 0.295825
vt 0.622388 0.910411
vt 0.576888 0.829393
vt 0.576888 0.295825
vt 0.622388 0.100230
vt 0.747500 0.760044
vt 0.715397 0.089602
vt 0.747500 0.227612
vt 0.671942 0.292197
vt 0.626443 0.906783
vt 0.626443 0.096603
vt 0.576888 0.295825
vt 0.576888 0.829393
vt 0.682653 0.221658
vt 0.714757 0.892100
vt 0.682653 0.754090
vt 0.576888 0.295825
vt 0.622388 0.910411
vt 0.576888 0.829393
vt 0.671942 0.292197
vt 0.626443 0.906783
vt 0.626443 0.096603
vt 0.746862 0.754088
vt 0.714758 0.083646
vt 0.746862 0.221655
vt 0.671942 0.292197
vt 0.626443 0.906783
vt 0.626443 0.096603
vt 0.576888 0.295825
vt 0.622388 0.910411
vt 0.576888 0.829393
vt 0.748460 0.760044
vt 0.716355 0.089602
vt 0.748460 0.227612
vt 0.671942 0.292197
vt 0.626443 0.906783
vt 0.626443 0.096603
vt 0.576888 0.295825
vt 0.622388 0.910411
vt 0.576888 0.829393
vt 0.684251 0.227614
vt 0.716355 0.898056
vt 0.684251 0.760047
vt 0.671942 0.292197
vt 0.626443 0.096603
vt 0.576888 0.295825
vt 0.576888 0.829393
vt 0.748571 0.760044
vt 0.716467 0.089602
vt 0.748571 0.227612
vt 0.671942 0.292197
vt 0.626443 0.906783
vt 0.576888 0.295825
vt 0.622388 0.910411
vt 0.576888 0.829393
vt 0.684362 0.227614
vt 0.716466 0.898056
vt 0.684362 0.760047
vt 0.671942 0.292197
vt 0.626443 0.906783
vt 0.626443 0.096603
vt 0.576888 0.295825
vt 0.622388 0.910411
vt 0.576888 0.829393
vt 0.684139 0.227614
vt 0.716243 0.898056
vt 0.684139 0.760047
vt 0.576888 0.295825
vt 0.622388 0.910411
vt 0.576888 0.829393
vt 0.671942 0.292197
vt 0.626443 0.906783
vt 0.626443 0.096603
vt 0.748348 0.760044
vt 0.716244 0.089602
vt 0.748348 0.227612
vt 0.576888 0.295825
vt 0.576888 0.829393
vt 0.576888 0.295825
vt 0.622388 0.100230
vt 0.746307 0.754088
vt 0.714203 0.083646
vt 0.746307 0.221655
vt 0.576888 0.295825
vt 0.622388 0.100230
vt 0.576888 0.295825
vt 0.576888 0.829393
vt 0.682099 0.221658
vt 0.714203 0.892099
vt 0.682099 0.754090
vt 0.534664 0.932210
vt 0.032375 0.037821
vt 0.534664 0.037821
vt 0.777100 0.593208
vt 0.986495 0.358353
vt 0.986507 0.593208
vt 0.777110 0.759264
vt 0.986509 0.759264
vt 0.777134 0.192297
vt 0.986509 0.192297
vt 0.025857 0.060377
vt 0.528147 0.954765
vt 0.025858 0.954765
vt 0.986507 0.593208
vt 0.777124 0.358353
vt 0.986495 0.358353
vt 0.777110 0.759264
vt 0.986509 0.759264
vt 0.777134 0.192297
vt 0.986509 0.192297
vt 0.025857 0.060377
vt 0.528147 0.954765
vt 0.025858 0.954765
vt 0.777100 0.593208
vt 0.986495 0.358353
vt 0.986507 0.593208
vt 0.777110 0.759264
vt 0.986509 0.759264
vt 0.777134 0.192297
vt 0.986509 0.192297
vt 0.534664 0.932210
vt 0.032375 0.037821
vt 0.534664 0.037821
vt 0.777100 0.593208
vt 0.986495 0.358353
vt 0.986507 0.593208
vt 0.777110 0.759264
vt 0.986509 0.759264
vt 0.777134 0.192297
vt 0.986509 0.192297
vt 0.025857 0.060377
vt 0.528147 0.954765
vt 0.025858 0.954765
vt 0.777100 0.593208
vt 0.986495 0.358353
vt 0.986507 0.593208
vt 0.777110 0.759264
vt 0.986509 0.759264
vt 0.777134 0.192297
vt 0.986509 0.192297
vt 0.534664 0.932210
vt 0.032375 0.037821
vt 0.534664 0.037821
vt 0.777100 0.593208
vt 0.986495 0.358353
vt 0.986507 0.593208
vt 0.777110 0.759264
vt 0.986509 0.759264
vt 0.777134 0.192297
vt 0.986509 0.192297
vt 0.528147 0.954765
vt 0.025858 0.954765
vt 0.025857 0.060377
vt 0.777110 0.759264
vt 0.986507 0.593208
vt 0.986509 0.759264
vt 0.986495 0.358353
vt 0.777134 0.192297
vt 0.986509 0.192297
vt 0.777100 0.593208
vt 0.032375 0.037821
vt 0.534664 0.037821
vt 0.534664 0.932210
vt 0.777110 0.759264
vt 0.986507 0.593208
vt 0.986509 0.759264
vt 0.986495 0.358353
vt 0.777134 0.192297
vt 0.986509 0.192297
vt 0.777124 0.358353
vt 0.032375 0.037821
vt 0.534664 0.037821
vt 0.534664 0.932210
vt 0.777110 0.759264
vt 0.986507 0.593208
vt 0.986509 0.759264
vt 0.986495 0.358353
vt 0.777134 0.192297
vt 0.986509 0.192297
vt 0.777100 0.593208
vt 0.032375 0.037821
vt 0.534664 0.037821
vt 0.534664 0.932210
vt 0.986509 0.192297
vt 0.777124 0.358353
vt 0.777134 0.192297
vt 0.777100 0.593208
vt 0.986509 0.759264
vt 0.777110 0.759264
vt 0.986495 0.358353
vt 0.528147 0.954765
vt 0.025858 0.954765
vt 0.025857 0.060377
vt 0.777110 0.759264
vt 0.986507 0.593208
vt 0.986509 0.759264
vt 0.986495 0.358353
vt 0.777134 0.192297
vt 0.986509 0.192297
vt 0.777100 0.593208
vt 0.032375 0.037821
vt 0.534664 0.037821
vt 0.534664 0.932210
vt 0.777110 0.759264
vt 0.986507 0.593208
vt 0.986509 0.759264
vt 0.986495 0.358353
vt 0.777134 0.192297
vt 0.986509 0.192297
vt 0.777124 0.358353
vt 0.671942 0.825765
vt 0.622388 0.100230
vt 0.671942 0.825765
vt 0.671942 0.825765
vt 0.671942 0.825765
vt 0.622388 0.100230
vt 0.671942 0.825765
vt 0.622388 0.100230
vt 0.671942 0.825765
vt 0.671942 0.825765
vt 0.671942 0.825765
vt 0.622388 0.100230
vt 0.622388 0.100230
vt 0.671942 0.825765
vt 0.777124 0.358353
vt 0.777100 0.593208
vt 0.777124 0.358353
vt 0.777124 0.358353
vt 0.777124 0.358353
vt 0.777124 0.358353
vt 0.777124 0.358353
vt 0.777100 0.593208
vt 0.777124 0.358353
vt 0.986507 0.593208
vt 0.777124 0.358353
vt 0.777100 0.593208
vn 0.0000 1.0000 0.0000
vn 0.0000 0.0000 -1.0000
vn 1.0000 0.0000 0.0000
vn 0.0000 0.0000 1.0000
vn -1.0000 0.0000 0.0000
vn 0.0000 -1.0000 0.0000
vn 0.7034 -0.1020 -0.7034
vn -0.9252 0.3796 0.0000
vn 0.0000 0.3796 0.9252
vn 0.7034 -0.7034 -0.1020
vn 0.0000 0.9252 0.3796
vn -0.9252 0.0000 0.3796
vn 0.1020 -0.7034 0.7034
vn -0.3796 0.9252 0.0000
vn -0.3796 0.0000 -0.9252
vn -0.7034 0.1020 -0.7034
vn 0.9252 -0.3796 0.0000
vn 0.0000 -0.3796 0.9252
vn -0.1020 -0.7034 -0.7034
vn 0.3796 0.9252 0.0000
vn 0.3796 0.0000 0.9252
vn -0.7034 -0.7034 0.1020
vn 0.0000 0.9252 -0.3796
vn 0.9252 0.0000 -0.3796
vn 0.9252 0.3796 0.0000
vn 0.0000 0.3796 -0.9252
vn -0.7034 -0.1020 0.7034
vn 0.0000 -0.9252 0.3796
vn 0.9252 0.0000 0.3796
vn -0.7034 0.7034 -0.1020
vn -0.3796 -0.9252 0.0000
vn -0.3796 0.0000 0.9252
vn 0.1020 0.7034 -0.7034
vn -0.9252 -0.3796 0.0000
vn 0.0000 -0.3796 -0.9252
vn 0.7034 0.1020 0.7034
vn 0.3796 -0.9252 0.0000
vn 0.3796 0.0000 -0.9252
vn -0.1020 0.7034 0.7034
vn 0.0000 -0.9252 -0.3796
vn -0.9252 0.0000 -0.3796
vn 0.7034 0.7034 0.1020
s off
f 3/1/1 38/2/1 30/3/1
f 5/4/1 38/5/1 7/6/1
f 3/7/1 33/8/1 5/9/1
f 9/10/1 24/11/1 1/12/1
f 11/13/1 24/11/1 33/14/1
f 11/15/1 30/16/1 9/17/1
f 2/18/2 24/19/2 44/20/2
f 14/21/2 24/11/2 12/22/2
f 2/23/2 33/24/2 14/25/2
f 16/26/2 39/27/2 6/28/2
f 17/29/2 39/30/2 33/31/2
f 17/32/2 44/33/2 16/34/2
f 4/35/3 30/36/3 43/37/3
f 15/38/3 30/39/3 13/40/3
f 4/41/3 24/42/3 15/43/3
f 23/44/3 44/45/3 24/46/3
f 22/47/3 44/48/3 18/49/3
f 23/50/3 43/51/3 22/52/3
f 8/53/4 38/2/4 42/54/4
f 21/55/4 38/5/4 10/56/4
f 8/57/4 30/58/4 21/59/4
f 29/60/4 43/61/4 30/3/4
f 27/62/4 43/63/4 26/64/4
f 29/65/4 42/66/4 27/67/4
f 19/68/5 33/69/5 39/70/5
f 28/71/5 33/72/5 20/73/5
f 19/74/5 38/75/5 28/76/5
f 34/77/5 42/78/5 32/79/5
f 35/80/5 42/81/5 38/82/5
f 35/83/5 39/84/5 34/85/5
f 37/86/6 39/27/6 36/87/6
f 25/88/6 39/27/6 44/89/6
f 25/90/6 42/91/6 37/92/6
f 40/93/6 43/63/6 42/94/6
f 41/95/6 43/63/6 31/96/6
f 40/97/6 44/98/6 41/99/6
f 45/100/1 46/101/1 47/102/1
f 46/103/7 11/104/7 9/105/7
f 47/106/8 9/105/8 1/107/8
f 11/104/9 47/108/9 1/109/9
f 48/110/4 49/111/4 50/112/4
f 27/113/10 48/114/10 29/115/10
f 50/116/11 27/113/11 26/117/11
f 29/115/12 50/118/12 26/119/12
f 51/120/5 52/121/5 53/122/5
f 52/123/13 35/124/13 34/125/13
f 53/126/14 34/125/14 32/127/14
f 35/124/15 53/128/15 32/129/15
f 54/130/6 55/131/6 56/132/6
f 55/133/16 25/134/16 37/135/16
f 56/136/17 37/135/17 36/137/17
f 25/134/18 56/138/18 36/139/18
f 57/140/3 58/141/3 59/142/3
f 58/143/19 23/144/19 22/145/19
f 59/146/20 22/145/20 18/147/20
f 23/144/21 59/148/21 18/149/21
f 60/150/2 61/151/2 62/152/2
f 61/153/22 17/154/22 16/155/22
f 62/156/23 16/155/23 6/157/23
f 17/154/24 62/158/24 6/159/24
f 63/160/1 64/161/1 65/162/1
f 64/163/25 5/164/25 7/165/25
f 3/166/26 64/167/26 7/168/26
f 63/169/27 3/166/27 5/164/27
f 66/170/4 67/171/4 68/172/4
f 67/173/28 21/174/28 10/175/28
f 8/176/29 67/177/29 10/178/29
f 21/174/30 68/179/30 8/176/30
f 69/180/5 70/181/5 71/182/5
f 70/183/31 28/184/31 20/185/31
f 19/186/32 70/187/32 20/188/32
f 69/189/33 19/186/33 28/184/33
f 72/190/6 73/191/6 74/192/6
f 73/193/34 41/194/34 31/195/34
f 40/196/35 73/197/35 31/198/35
f 72/199/36 40/196/36 41/194/36
f 75/200/3 76/201/3 77/202/3
f 76/203/37 15/204/37 13/205/37
f 4/206/38 76/207/38 13/208/38
f 75/209/39 4/206/39 15/204/39
f 78/210/2 79/211/2 80/212/2
f 79/213/40 14/214/40 12/215/40
f 2/216/41 79/217/41 12/218/41
f 14/214/42 80/219/42 2/216/42
f 3/1/1 7/220/1 38/2/1
f 5/4/1 33/14/1 38/5/1
f 3/7/1 30/16/1 33/8/1
f 9/10/1 30/221/1 24/11/1
f 11/13/1 1/12/1 24/11/1
f 11/15/1 33/8/1 30/16/1
f 2/18/2 12/222/2 24/19/2
f 14/21/2 33/14/2 24/11/2
f 2/23/2 44/33/2 33/24/2
f 16/26/2 44/89/2 39/27/2
f 17/29/2 6/223/2 39/30/2
f 17/32/2 33/24/2 44/33/2
f 4/35/3 13/224/3 30/36/3
f 15/38/3 24/225/3 30/39/3
f 4/41/3 43/51/3 24/42/3
f 23/44/3 18/226/3 44/45/3
f 22/47/3 43/227/3 44/48/3
f 23/50/3 24/42/3 43/51/3
f 8/53/4 10/228/4 38/2/4
f 21/55/4 30/221/4 38/5/4
f 8/57/4 42/66/4 30/58/4
f 29/60/4 26/229/4 43/61/4
f 27/62/4 42/94/4 43/63/4
f 29/65/4 30/58/4 42/66/4
f 19/68/5 20/230/5 33/69/5
f 28/71/5 38/231/5 33/72/5
f 19/74/5 39/84/5 38/75/5
f 34/77/5 39/232/5 42/78/5
f 35/80/5 32/233/5 42/81/5
f 35/83/5 38/75/5 39/84/5
f 37/86/6 42/94/6 39/27/6
f 25/88/6 36/87/6 39/27/6
f 25/90/6 44/98/6 42/91/6
f 40/93/6 31/96/6 43/63/6
f 41/95/6 44/89/6 43/63/6
f 40/97/6 42/91/6 44/98/6
f 46/103/7 45/234/7 11/104/7
f 47/106/8 46/103/8 9/105/8
f 11/104/9 45/234/9 47/108/9
f 27/113/10 49/235/10 48/114/10
f 50/116/11 49/235/11 27/113/11
f 29/115/12 48/114/12 50/118/12
f 52/123/13 51/236/13 35/124/13
f 53/126/14 52/123/14 34/125/14
f 35/124/15 51/236/15 53/128/15
f 55/133/16 54/237/16 25/134/16
f 56/136/17 55/133/17 37/135/17
f 25/134/18 54/237/18 56/138/18
f 58/143/19 57/238/19 23/144/19
f 59/146/20 58/143/20 22/145/20
f 23/144/21 57/238/21 59/148/21
f 61/153/22 60/239/22 17/154/22
f 62/156/23 61/153/23 16/155/23
f 17/154/24 60/239/24 62/158/24
f 64/163/25 63/169/25 5/164/25
f 3/166/26 65/240/26 64/167/26
f 63/169/27 65/240/27 3/166/27
f 67/173/28 66/241/28 21/174/28
f 8/176/29 68/179/29 67/177/29
f 21/174/30 66/241/30 68/179/30
f 70/183/31 69/189/31 28/184/31
f 19/186/32 71/242/32 70/187/32
f 69/189/33 71/242/33 19/186/33
f 73/193/34 72/199/34 41/194/34
f 40/196/35 74/243/35 73/197/35
f 72/199/36 74/243/36 40/196/36
f 76/203/37 75/209/37 15/204/37
f 4/206/38 77/244/38 76/207/38
f 75/209/39 77/244/39 4/206/39
f 79/213/40 78/245/40 14/214/40
f 2/216/41 80/219/41 79/217/41
f 14/214/42 78/245/42 80/219/42
