# Blender v2.93.5 OBJ File: ''
# www.blender.org
mtllib CaltropStar.mtl
o Cone
v 0.000000 -0.750000 -1.000000
v 0.866025 -0.750000 0.500000
v -0.866025 -0.750000 0.500000
v 0.000000 0.750000 0.000000
v -0.000000 2.233865 7.402279
v 6.410562 2.233865 -3.701139
v -6.410561 2.233865 -3.701139
v -0.000000 -8.252912 -0.000000
vt 0.961074 0.096194
vt 0.660512 0.020497
vt 0.499690 0.956707
vt 0.356783 0.017626
vt 0.660512 0.020497
vt 0.499690 0.956707
vt 0.660512 0.020497
vt 0.499690 0.956707
vt 0.499690 0.956707
vt 0.356783 0.017626
vt 0.054881 0.087680
vt 0.356783 0.017626
vt 0.054881 0.087680
vt 0.961074 0.096194
vn 0.3555 0.4738 0.8057
vn -0.8641 -0.0665 -0.4989
vn -0.8755 0.4738 -0.0950
vn -0.3436 -0.9179 -0.1984
vn 0.0000 -0.9179 0.3968
vn 0.8755 0.4738 -0.0950
vn -0.5200 0.4738 -0.7107
vn 0.3436 -0.9179 -0.1984
vn -0.3555 0.4738 0.8057
vn 0.5200 0.4738 -0.7107
vn -0.0000 -0.0665 0.9978
vn 0.8641 -0.0665 -0.4989
usemtl None
s off
f 4/1/1 2/2/1 6/3/1
f 3/4/2 1/5/2 8/6/2
f 4/1/3 3/7/3 5/8/3
f 1/5/4 3/4/4 7/9/4
f 3/7/5 2/10/5 5/8/5
f 2/10/6 4/11/6 5/8/6
f 1/12/7 4/11/7 6/3/7
f 2/2/8 1/12/8 6/3/8
f 3/4/9 4/11/9 7/9/9
f 4/1/10 1/5/10 7/9/10
f 2/13/11 3/4/11 8/6/11
f 1/5/12 2/14/12 8/6/12
