# Blender v2.93.5 OBJ File: ''
# www.blender.org
mtllib MultiCube.mtl
o MultiCube_Cube.001
v -0.107187 2.486380 -1.876429
v -0.107187 0.486380 -1.876429
v -0.107187 2.486380 0.123571
v -2.107187 2.486380 -1.876429
v -2.107187 0.486380 -1.876429
v -2.107187 2.486380 0.123571
v -2.107187 0.486380 0.123571
v 1.000000 1.000000 -0.741547
v 1.000000 -1.000000 -0.741547
v 1.000000 1.000000 1.258453
v 1.000000 -1.000000 1.258453
v -1.000000 -1.000000 -0.741547
v -1.000000 -1.000000 1.258453
v -0.107187 0.486380 -0.741547
v -1.000000 0.486380 -0.741547
v -0.107187 1.000000 -0.741547
v -1.703483 -0.180202 1.713990
v -1.703483 1.819798 1.713990
v -1.703483 -0.180202 -0.286010
v 0.296517 -0.180202 1.713990
v 0.296517 1.819798 1.713990
v 0.296517 1.819798 -0.286010
v -0.107187 1.819798 0.123571
v -1.703483 0.486380 0.123571
v -1.703483 1.819798 0.123571
v -1.000000 0.486380 -0.286010
v -1.703483 0.486380 -0.286010
v -0.107187 1.000000 -0.286010
v -0.107187 1.819798 -0.286010
v 0.296517 1.000000 1.258453
v 0.296517 1.000000 -0.286010
v 0.296517 -0.180202 1.258453
v -1.000000 -0.180202 1.258453
v -1.000000 -0.180202 -0.286010
vt 0.875000 0.500000
vt 0.625000 0.750000
vt 0.625000 0.500000
vt 0.541677 0.949537
vt 0.625000 1.000000
vt 0.625000 0.000000
vt 0.375000 0.250000
vt 0.375000 0.000000
vt 0.125000 0.500000
vt 0.263398 0.641860
vt 0.175463 0.698802
vt 0.541677 0.698802
vt 0.439202 0.641860
vt 0.625000 0.250000
vt 0.375000 0.500000
vt 0.763398 0.500000
vt 0.763398 0.556942
vt 0.712935 0.556942
vt 0.477475 0.837935
vt 0.375000 1.000000
vt 0.375000 0.750000
vt 0.375000 0.000000
vt 0.477475 0.000000
vt 0.477475 0.193058
vt 0.375000 0.500000
vt 0.125000 0.750000
vt 0.125000 0.500000
vt 0.625000 0.500000
vt 0.375000 0.250000
vt 0.560798 0.250000
vt 0.560798 0.361602
vt 0.625000 0.000000
vt 0.625000 0.198802
vt 0.458323 0.198802
vt 0.625000 0.500000
vt 0.522525 0.449537
vt 0.625000 0.449537
vt 0.375000 0.337935
vt 0.458323 0.250000
vt 0.458323 0.337935
vt 0.522525 0.693058
vt 0.625000 0.750000
vt 0.375000 1.000000
vt 0.375000 0.750000
vt 0.125000 0.500000
vt 0.212935 0.500000
vt 0.212935 0.693058
vt 0.675463 0.551198
vt 0.875000 0.750000
vt 0.875000 0.750000
vt 0.541677 0.750000
vt 0.375000 1.000000
vt 0.375000 0.949537
vt 0.175463 0.750000
vt 0.125000 0.750000
vt 0.375000 0.641860
vt 0.263398 0.698802
vt 0.439202 0.698802
vt 0.712935 0.750000
vt 0.625000 0.750000
vt 0.477475 1.000000
vt 0.625000 0.837935
vt 0.560798 0.193058
vt 0.625000 0.361602
vt 0.375000 0.250000
vt 0.375000 0.000000
vt 0.522525 0.500000
vt 0.375000 0.693058
vt 0.625000 1.000000
vt 0.125000 0.750000
vt 0.875000 0.551198
vt 0.675463 0.500000
vn 0.0000 1.0000 0.0000
vn 0.0000 0.0000 1.0000
vn -1.0000 0.0000 0.0000
vn 0.0000 -1.0000 -0.0000
vn 1.0000 0.0000 0.0000
vn 0.0000 0.0000 -1.0000
usemtl Material.001
s off
f 4/1/1 3/2/1 1/3/1
f 25/4/2 3/2/2 6/5/2
f 6/6/3 5/7/3 7/8/3
f 5/9/4 15/10/4 27/11/4
f 1/3/5 29/12/5 16/13/5
f 4/14/6 2/15/6 5/7/6
f 16/16/1 28/17/1 31/18/1
f 32/19/2 13/20/2 11/21/2
f 13/22/3 33/23/3 34/24/3
f 9/25/4 13/26/4 12/27/4
f 8/28/5 11/21/5 9/25/5
f 12/29/6 15/30/6 14/31/6
f 18/32/3 25/33/3 24/34/3
f 22/35/6 28/36/6 29/37/6
f 34/38/6 27/39/6 26/40/6
f 30/41/5 22/35/5 21/42/5
f 21/42/2 17/43/2 20/44/2
f 19/45/4 34/46/4 33/47/4
f 23/48/1 18/49/1 21/42/1
f 4/1/1 6/50/1 3/2/1
f 25/4/2 23/51/2 3/2/2
f 6/5/2 7/52/2 25/4/2
f 7/52/2 24/53/2 25/4/2
f 6/6/3 4/14/3 5/7/3
f 24/54/4 7/55/4 27/11/4
f 7/55/4 5/9/4 27/11/4
f 5/9/4 2/15/4 15/10/4
f 2/15/4 14/56/4 15/10/4
f 15/10/4 26/57/4 27/11/4
f 16/13/5 14/56/5 2/15/5
f 2/15/5 1/3/5 16/13/5
f 1/3/5 3/2/5 29/12/5
f 3/2/5 23/51/5 29/12/5
f 29/12/5 28/58/5 16/13/5
f 4/14/6 1/3/6 2/15/6
f 30/59/1 10/60/1 31/18/1
f 10/60/1 8/28/1 31/18/1
f 8/28/1 16/16/1 31/18/1
f 32/19/2 33/61/2 13/20/2
f 11/21/2 10/60/2 32/19/2
f 10/60/2 30/62/2 32/19/2
f 26/63/3 15/30/3 34/24/3
f 15/30/3 12/29/3 34/24/3
f 12/29/3 13/22/3 34/24/3
f 9/25/4 11/21/4 13/26/4
f 8/28/5 10/60/5 11/21/5
f 16/64/6 8/28/6 14/31/6
f 8/28/6 9/25/6 14/31/6
f 9/25/6 12/29/6 14/31/6
f 24/34/3 27/39/3 19/65/3
f 19/65/3 17/66/3 24/34/3
f 17/66/3 18/32/3 24/34/3
f 22/35/6 31/67/6 28/36/6
f 34/38/6 19/65/6 27/39/6
f 30/41/5 31/67/5 22/35/5
f 21/42/5 20/44/5 30/41/5
f 20/44/5 32/68/5 30/41/5
f 21/42/2 18/69/2 17/43/2
f 32/68/4 20/44/4 33/47/4
f 20/44/4 17/70/4 33/47/4
f 17/70/4 19/45/4 33/47/4
f 23/48/1 25/71/1 18/49/1
f 21/42/1 22/35/1 23/48/1
f 22/35/1 29/72/1 23/48/1
