# Blender v2.83.4 OBJ File: 'Sign_on_wood_post.blend'
# www.blender.org
o WorldSign_Cube.001
v -0.300000 -1.000000 0.300000
v -0.300000 10.415886 0.300000
v -0.300000 -1.000000 -0.300000
v -0.300000 10.415886 -0.300000
v 0.300000 -1.000000 0.300000
v 0.300000 10.415886 0.300000
v 0.300000 -1.000000 -0.300000
v 0.300000 10.415886 -0.300000
v 0.000000 -1.000000 -0.300000
v 0.000000 10.415886 -0.300000
v 0.000000 -1.000000 0.300000
v 0.000000 10.415886 0.300000
v -0.300000 0.440478 0.300000
v -0.300000 1.880957 0.300000
v -0.300000 3.321435 0.300000
v -0.300000 4.761913 0.300000
v -0.300000 6.202392 0.300000
v -0.300000 6.202392 -0.300000
v -0.300000 4.761913 -0.300000
v -0.300000 3.321435 -0.300000
v -0.300000 1.880957 -0.300000
v -0.300000 0.440478 -0.300000
v 0.300000 6.452392 -0.050000
v 0.300000 4.761913 -0.300000
v 0.300000 3.321435 -0.300000
v 0.300000 1.880957 -0.300000
v 0.300000 0.440478 -0.300000
v 0.300000 6.452392 0.050000
v 0.300000 4.761913 0.300000
v 0.300000 3.321435 0.300000
v 0.300000 1.880957 0.300000
v 0.300000 0.440478 0.300000
v 0.000000 6.202392 0.300000
v 0.000000 4.761913 0.300000
v 0.000000 3.321435 0.300000
v 0.000000 1.880957 0.300000
v 0.000000 0.440478 0.300000
v 0.000000 6.202392 -0.300000
v 0.000000 4.761913 -0.300000
v 0.000000 3.321435 -0.300000
v 0.000000 1.880957 -0.300000
v 0.000000 0.440478 -0.300000
v -0.300000 6.922631 0.300000
v -0.300000 6.922631 -0.300000
v 0.300000 6.672631 -0.050000
v 0.300000 6.672631 0.050000
v 0.000000 6.922631 0.300000
v 0.000000 6.922631 -0.300000
v 0.300000 6.922631 -0.300000
v 0.300000 6.202392 -0.300000
v 0.300000 6.922631 0.300000
v 0.300000 6.202392 0.300000
v 0.444511 9.093096 -4.010301
v 0.333684 3.315509 -3.456171
v 0.321357 9.811381 3.454212
v 0.210531 4.033794 4.008341
v 0.550998 9.091239 -4.008365
v 0.440171 3.313653 -3.454236
v 0.427844 9.809525 3.456148
v 0.317018 4.031938 4.010277
v -0.300000 -1.000000 0.000000
v -0.300000 10.415886 0.000000
v 0.300000 -1.000000 0.000000
v 0.300000 10.415886 0.000000
v 0.000000 10.415886 0.000000
v 0.300000 0.440478 0.000000
v 0.300000 1.880957 0.000000
v 0.300000 3.321435 0.000000
v 0.300000 4.761913 0.000000
v 0.300000 6.202392 0.000000
v -0.300000 0.440478 0.000000
v -0.300000 1.880957 0.000000
v -0.300000 3.321435 0.000000
v -0.300000 4.761913 0.000000
v -0.300000 6.202392 0.000000
v 0.300000 6.922631 0.000000
v -0.300000 6.922631 0.000000
v 0.300000 6.452392 0.000000
v 0.300000 6.672631 0.000000
v 0.276019 3.674584 0.276156
v 0.386845 9.452170 -0.277973
v 0.378595 3.672795 0.278021
v 0.489421 9.450382 -0.276109
vt 0.890463 0.987066
vt 0.864863 0.688984
vt 0.890463 0.688984
vt 0.839264 0.987067
vt 0.813664 0.688984
vt 0.839264 0.688984
vt 0.992860 0.987067
vt 0.967261 0.688984
vt 0.992861 0.688984
vt 0.941661 0.987066
vt 0.916062 0.688984
vt 0.941662 0.688984
vt 0.757589 0.897627
vt 0.708971 0.946244
vt 0.708971 0.897627
vt 0.660353 0.946244
vt 0.660353 0.897627
vt 0.967261 0.987067
vt 0.864864 0.987066
vt 0.864864 0.135852
vt 0.839264 0.012933
vt 0.864864 0.012933
vt 0.864864 0.258770
vt 0.839264 0.135852
vt 0.864864 0.381688
vt 0.839264 0.258770
vt 0.864864 0.504607
vt 0.839264 0.381688
vt 0.864864 0.627525
vt 0.839264 0.504607
vt 0.967261 0.135852
vt 0.941662 0.012933
vt 0.967261 0.012933
vt 0.967261 0.258770
vt 0.941662 0.135852
vt 0.967262 0.381688
vt 0.941662 0.258770
vt 0.967262 0.504607
vt 0.941662 0.381688
vt 0.967262 0.627525
vt 0.941662 0.504607
vt 0.916062 0.012933
vt 0.916062 0.135852
vt 0.916063 0.258770
vt 0.916063 0.381688
vt 0.941662 0.627525
vt 0.916063 0.504607
vt 0.992861 0.135852
vt 0.992861 0.012933
vt 0.992861 0.258770
vt 0.992861 0.381688
vt 0.992861 0.504607
vt 0.992861 0.627525
vt 0.813665 0.012933
vt 0.813665 0.135852
vt 0.813665 0.258770
vt 0.813665 0.381688
vt 0.839264 0.627525
vt 0.813664 0.504607
vt 0.890463 0.135852
vt 0.890463 0.012933
vt 0.890463 0.258770
vt 0.890463 0.381688
vt 0.890463 0.504607
vt 0.890463 0.627525
vt 0.916062 0.627525
vt 0.343286 0.786627
vt 0.337868 0.977813
vt 0.337861 0.786627
vt 0.813664 0.627525
vt 0.792332 0.648858
vt 0.792332 0.667651
vt 0.988594 0.667651
vt 0.988594 0.648858
vt 0.992861 0.648858
vt 0.788065 0.688984
vt 0.788065 0.667651
vt 0.609136 0.579504
vt 0.619993 0.977803
vt 0.609143 0.977803
vt 0.332435 0.770695
vt 0.337853 0.579504
vt 0.337860 0.770695
vt 0.066582 0.977811
vt 0.066582 0.579511
vt 0.394129 0.551340
vt 0.027332 0.012786
vt 0.394129 0.012786
vt 0.066581 0.572277
vt 0.337853 0.572269
vt 0.055731 0.579511
vt 0.609143 0.985037
vt 0.337868 0.985047
vt 0.066582 0.985046
vt 0.609136 0.572269
vt 0.760926 0.551340
vt 0.760926 0.012786
vt 0.343285 0.770695
vt 0.788065 0.627525
vt 0.332435 0.786627
vt 0.788065 0.504607
vt 0.788065 0.381688
vt 0.788065 0.258770
vt 0.788065 0.135852
vt 0.788065 0.012933
vt 0.708971 0.849009
vt 0.660353 0.849009
vt 0.757589 0.849009
vt 0.813665 0.987067
vt 0.916062 0.987066
vt 0.757589 0.946244
vt 0.619987 0.579504
vt 0.027332 0.551340
vt 0.055731 0.977811
vt 0.992861 0.667651
vt 0.788065 0.648858
vt 0.788066 0.987067
vn -1.0000 0.0000 0.0000
vn 0.0000 0.0000 -1.0000
vn 1.0000 0.0000 0.0000
vn 0.0000 0.0000 1.0000
vn 0.0000 1.0000 0.0000
vn -0.9995 0.0312 0.0000
vn -0.0164 0.0958 0.9953
vn -0.9998 0.0182 -0.0105
vn -1.0000 0.0086 0.0000
vn -0.9995 0.0167 -0.0253
vn 0.9997 -0.0174 0.0182
vn -0.0191 -0.9953 0.0955
vn 0.0164 -0.0958 -0.9953
vn 0.0191 0.9953 -0.0955
vn -0.9998 0.0071 -0.0182
vn -0.9994 0.0297 -0.0183
vn -0.9994 0.0288 -0.0203
vn -0.9997 0.0000 -0.0226
vn -0.9998 0.0067 -0.0161
vn -0.9993 0.0000 -0.0365
s off
f 62/1/1 44/2/1 77/3/1
f 10/4/2 49/5/2 48/6/2
f 64/7/3 51/8/3 76/9/3
f 12/10/4 43/11/4 47/12/4
f 62/13/5 12/14/5 65/15/5
f 65/15/5 6/16/5 64/17/5
f 6/18/4 47/12/4 51/8/4
f 4/19/2 48/6/2 44/2/2
f 22/20/2 9/21/2 3/22/2
f 21/23/2 42/24/2 22/20/2
f 20/25/2 41/26/2 21/23/2
f 19/27/2 40/28/2 20/25/2
f 18/29/2 39/30/2 19/27/2
f 32/31/4 11/32/4 5/33/4
f 31/34/4 37/35/4 32/31/4
f 30/36/4 36/37/4 31/34/4
f 29/38/4 35/39/4 30/36/4
f 52/40/4 34/41/4 29/38/4
f 37/35/4 1/42/4 11/32/4
f 36/37/4 13/43/4 37/35/4
f 35/39/4 14/44/4 36/37/4
f 34/41/4 15/45/4 35/39/4
f 33/46/4 16/47/4 34/41/4
f 66/48/3 5/33/3 63/49/3
f 67/50/3 32/31/3 66/48/3
f 68/51/3 31/34/3 67/50/3
f 69/52/3 30/36/3 68/51/3
f 70/53/3 29/38/3 69/52/3
f 42/24/2 7/54/2 9/21/2
f 41/26/2 27/55/2 42/24/2
f 40/28/2 26/56/2 41/26/2
f 39/30/2 25/57/2 40/28/2
f 38/58/2 24/59/2 39/30/2
f 71/60/1 3/22/1 61/61/1
f 72/62/1 22/20/1 71/60/1
f 73/63/1 21/23/1 72/62/1
f 74/64/1 20/25/1 73/63/1
f 75/65/1 19/27/1 74/64/1
f 44/2/2 38/58/2 18/29/2
f 51/8/4 33/46/4 52/40/4
f 47/12/4 17/66/4 33/46/4
f 46/67/6 81/68/6 79/69/6
f 48/6/2 50/70/2 38/58/2
f 77/3/1 18/29/1 75/65/1
f 23/71/3 49/5/3 45/72/3
f 46/73/3 52/40/3 28/74/3
f 28/74/3 70/53/3 78/75/3
f 45/72/3 76/76/3 79/77/3
f 56/78/7 59/79/7 55/80/7
f 46/67/8 56/78/8 55/80/8
f 23/81/9 80/82/9 78/83/9
f 23/81/10 53/84/10 54/85/10
f 83/86/11 60/87/11 82/88/11
f 80/82/12 58/89/12 82/90/12
f 53/84/13 58/91/13 54/85/13
f 81/68/14 59/92/14 83/93/14
f 81/68/14 57/94/14 53/84/14
f 80/82/12 60/95/12 56/78/12
f 57/96/11 82/88/11 58/97/11
f 28/98/15 80/82/15 56/78/15
f 46/73/3 76/9/3 51/8/3
f 23/71/3 70/99/3 50/70/3
f 43/11/1 75/65/1 17/66/1
f 45/100/16 81/68/16 53/84/16
f 17/66/1 74/64/1 16/47/1
f 16/47/1 73/63/1 15/45/1
f 15/45/1 72/62/1 14/44/1
f 14/44/1 71/60/1 13/43/1
f 13/43/1 61/61/1 1/42/1
f 50/70/3 69/101/3 24/59/3
f 24/59/3 68/102/3 25/57/3
f 25/57/3 67/103/3 26/56/3
f 26/56/3 66/104/3 27/55/3
f 27/55/3 63/105/3 7/54/3
f 10/106/5 64/17/5 8/107/5
f 4/108/5 65/15/5 10/106/5
f 8/109/3 76/76/3 49/5/3
f 2/110/1 77/3/1 43/11/1
f 62/1/1 4/19/1 44/2/1
f 10/4/2 8/109/2 49/5/2
f 64/7/3 6/18/3 51/8/3
f 12/10/4 2/110/4 43/11/4
f 62/13/5 2/111/5 12/14/5
f 65/15/5 12/14/5 6/16/5
f 6/18/4 12/10/4 47/12/4
f 4/19/2 10/4/2 48/6/2
f 22/20/2 42/24/2 9/21/2
f 21/23/2 41/26/2 42/24/2
f 20/25/2 40/28/2 41/26/2
f 19/27/2 39/30/2 40/28/2
f 18/29/2 38/58/2 39/30/2
f 32/31/4 37/35/4 11/32/4
f 31/34/4 36/37/4 37/35/4
f 30/36/4 35/39/4 36/37/4
f 29/38/4 34/41/4 35/39/4
f 52/40/4 33/46/4 34/41/4
f 37/35/4 13/43/4 1/42/4
f 36/37/4 14/44/4 13/43/4
f 35/39/4 15/45/4 14/44/4
f 34/41/4 16/47/4 15/45/4
f 33/46/4 17/66/4 16/47/4
f 66/48/3 32/31/3 5/33/3
f 67/50/3 31/34/3 32/31/3
f 68/51/3 30/36/3 31/34/3
f 69/52/3 29/38/3 30/36/3
f 70/53/3 52/40/3 29/38/3
f 42/24/2 27/55/2 7/54/2
f 41/26/2 26/56/2 27/55/2
f 40/28/2 25/57/2 26/56/2
f 39/30/2 24/59/2 25/57/2
f 38/58/2 50/70/2 24/59/2
f 71/60/1 22/20/1 3/22/1
f 72/62/1 21/23/1 22/20/1
f 73/63/1 20/25/1 21/23/1
f 74/64/1 19/27/1 20/25/1
f 75/65/1 18/29/1 19/27/1
f 44/2/2 48/6/2 38/58/2
f 51/8/4 47/12/4 33/46/4
f 47/12/4 43/11/4 17/66/4
f 46/67/17 55/80/17 81/68/17
f 48/6/2 49/5/2 50/70/2
f 77/3/1 44/2/1 18/29/1
f 23/71/3 50/70/3 49/5/3
f 46/73/3 51/8/3 52/40/3
f 28/74/3 52/40/3 70/53/3
f 45/72/3 49/5/3 76/76/3
f 56/78/7 60/112/7 59/79/7
f 46/67/18 28/98/18 56/78/18
f 23/81/19 54/85/19 80/82/19
f 23/81/20 45/100/20 53/84/20
f 83/86/11 59/113/11 60/87/11
f 80/82/12 54/85/12 58/89/12
f 53/84/13 57/114/13 58/91/13
f 81/68/14 55/80/14 59/92/14
f 81/68/14 83/93/14 57/94/14
f 80/82/12 82/90/12 60/95/12
f 57/96/11 83/86/11 82/88/11
f 28/98/9 78/83/9 80/82/9
f 46/73/3 79/115/3 76/9/3
f 23/71/3 78/116/3 70/99/3
f 43/11/1 77/3/1 75/65/1
f 45/100/6 79/69/6 81/68/6
f 17/66/1 75/65/1 74/64/1
f 16/47/1 74/64/1 73/63/1
f 15/45/1 73/63/1 72/62/1
f 14/44/1 72/62/1 71/60/1
f 13/43/1 71/60/1 61/61/1
f 50/70/3 70/99/3 69/101/3
f 24/59/3 69/101/3 68/102/3
f 25/57/3 68/102/3 67/103/3
f 26/56/3 67/103/3 66/104/3
f 27/55/3 66/104/3 63/105/3
f 10/106/5 65/15/5 64/17/5
f 4/108/5 62/13/5 65/15/5
f 8/109/3 64/117/3 76/76/3
f 2/110/1 62/1/1 77/3/1
